<?xml version="1.0" encoding="UTF-8"?>
<svg xmlns="http://www.w3.org/2000/svg" width="100%" viewBox="0 0 1578 382" fill="none">
  <path d="M51.7499 174.218V31.0955H0V0H139.054V31.0955H87.094V174.218H51.7499Z" fill="#482317"></path>
  <path d="M310.075 0V174.218H275.055V102.785H193.255V174.218H158.234V0H193.255V71.6649H275.029V0H310.075Z" fill="#482317"></path>
  <path d="M465.113 31.1067H380.265V72.125H457.604V103.257H380.265V143.086H465.113V174.218H345.239V0H465.113V31.1067Z" fill="#482317"></path>
  <path d="M931.824 344.535C931.824 320.695 953.571 301.837 980.964 301.837C986.09 301.769 991.202 302.355 996.176 303.581L1019.24 204.586H1052.83L1026.02 318.01C1044.59 331.185 1060.63 347.301 1088.46 347.301V378.336C1058.63 378.336 1037.56 361.115 1018.49 347.54C1011.97 366.944 1000.95 382 973.618 382C947.372 382 931.824 363.393 931.824 344.535ZM964.682 344.277C964.682 348.581 967.939 351.981 973.942 351.981C979.944 351.981 986.491 345.287 989.153 333.368L989.388 331.881C986.558 331.082 983.634 330.66 980.692 330.626C971.945 330.633 964.663 336.831 964.663 344.277H964.682Z" fill="#482317"></path>
  <path d="M1227.51 238.909H1142.66V279.929H1220.01V311.037H1142.66V350.892H1227.51V382H1107.64V207.782H1227.51V238.909Z" fill="#482317"></path>
  <path d="M1386.3 382L1371.81 339.701H1289.38L1274.91 382H1238.7L1300.64 207.782H1360.61L1422.51 382H1386.3ZM1330.6 223.472L1300.16 308.593H1361.1L1330.6 223.472Z" fill="#482317"></path>
  <path d="M1517.63 207.782C1555.34 207.782 1577.55 229.682 1577.55 262.296C1577.55 295.898 1555.34 320.05 1517.63 320.05H1476.69V382H1441.69V207.782H1517.63ZM1510.14 288.94C1534.12 288.94 1542.85 279.987 1542.85 262.309C1542.85 244.63 1532.02 238.912 1510.14 238.912H1476.69V288.889L1510.14 288.94Z" fill="#482317"></path>
  <path d="M1053.22 66.5348C1040.83 44.6082 1019.89 30.0221 992.687 24.3332C980.095 21.6576 967.078 21.7267 954.516 24.5357C941.953 27.3447 930.138 32.8282 919.87 40.6152C910.821 47.6454 903.431 56.5951 898.229 66.8244C893.027 77.0537 890.141 88.31 889.778 99.7886C888.977 118.962 894.646 137.712 899.64 154.279C910.001 188.558 908.551 195 897.749 200.797C884.38 208.004 879.057 203.923 862.163 183.3C846.348 164.005 824.674 137.586 784.599 148.894C752.627 157.924 733.135 179.901 717.54 197.563C698.067 219.597 693.936 221.078 686.388 217.319C677.559 212.978 675.743 208.833 688.28 176.636C694.403 160.924 700.759 144.642 700.135 128.227C699.309 107.085 687.151 91.328 664.134 81.6398C616.737 61.6306 582.665 87.8096 552.617 110.907C529.474 128.682 507.623 145.464 479.498 145.464V175.839C517.896 175.839 546.128 154.127 571.031 135.004C602.113 111.122 622.69 97.1055 652.379 109.648C674.551 119.007 674.015 129.967 660.085 165.549C650.626 189.798 636.286 226.438 673.063 244.567C678.902 247.612 685.37 249.246 691.95 249.339C712.199 249.339 727.428 232.19 740.21 217.756C753.945 202.296 769.502 184.761 792.948 178.136C813.008 172.472 822.996 183.198 838.919 202.606C853.499 220.407 875.564 247.301 912.215 227.57C947.8 208.403 937.263 173.491 928.762 145.426C924.266 130.511 919.593 115.052 920.11 101.073C920.27 93.9956 922.009 87.044 925.198 80.7296C928.388 74.4152 932.948 68.8987 938.543 64.5858C945.331 59.4861 953.13 55.9072 961.414 54.0907C969.698 52.2741 978.274 52.2623 986.563 54.0559C1005.28 57.9603 1018.86 67.2119 1026.92 81.5132C1039.9 104.503 1038.58 140.364 1023.05 185.293H1054.93C1070.33 135.782 1069.8 95.8652 1053.22 66.5348Z" fill="url(#paint0_linear_271_3568)"></path>
  <defs>
    <linearGradient id="paint0_linear_271_3568" x1="1076.33" y1="135.706" x2="506.702" y2="136.083" gradientUnits="userSpaceOnUse">
      <stop offset="0.05" stop-color="#52B448"></stop>
      <stop offset="0.22" stop-color="#ECF956"></stop>
      <stop offset="0.41" stop-color="#E3C6E4"></stop>
      <stop offset="0.56" stop-color="#FB4827"></stop>
      <stop offset="0.73" stop-color="#29A7FF"></stop>
      <stop offset="0.91" stop-color="#52B448"></stop>
      <stop offset="0.9999" stop-color="#52B448"></stop>
      <stop offset="1" stop-color="#52B448"></stop>
    </linearGradient>
  </defs>
</svg>
