<svg xmlns="http://www.w3.org/2000/svg">


	<symbol id="rating-star">
		<path d="M21.57,2.049c0.303-0.612,0.927-1,1.609-1c0.682,0,1.307,0.388,1.609,1l5.771,11.695c0.261,0.529,0.767,0.896,1.352,0.981
				L44.817,16.6c0.677,0.098,1.237,0.572,1.448,1.221c0.211,0.649,0.035,1.363-0.454,1.839l-9.338,9.104
				c-0.423,0.412-0.616,1.006-0.517,1.588l2.204,12.855c0.114,0.674-0.161,1.354-0.715,1.756c-0.553,0.4-1.284,0.453-1.89,0.137
				l-11.544-6.07c-0.522-0.275-1.147-0.275-1.67,0l-11.544,6.069c-0.604,0.317-1.337,0.265-1.89-0.136
				c-0.553-0.401-0.829-1.082-0.714-1.756l2.204-12.855c0.1-0.582-0.094-1.176-0.517-1.588L0.542,19.66
				c-0.489-0.477-0.665-1.19-0.454-1.839c0.211-0.649,0.772-1.123,1.449-1.221l12.908-1.875c0.584-0.085,1.09-0.452,1.351-0.982
				L21.57,2.049z" fill="currentColor" />
	</symbol>
	<symbol id="next-arrow">
		<path d="M508.245,246.953L363.435,102.133c-5.001-5.001-13.099-5.001-18.099,0c-5.001,5-5.001,13.099,0,18.099l122.965,122.965
					H12.8c-7.074,0-12.8,5.726-12.8,12.8c0,7.074,5.726,12.8,12.8,12.8h455.492L345.327,391.763c-5.001,5-5.001,13.099,0,18.099
					c5.009,5.001,13.099,5.001,18.108,0l144.811-144.811C513.246,260.051,513.246,251.953,508.245,246.953z"
			fill="currentColor" />
	</symbol>
	<symbol id="nav-collaboration-journey-01">
		<path fill="currentColor"
			d="M16.7382 5.10055C16.6049 5.10055 16.4769 5.04757 16.3826 4.95327C16.2883 4.85896 16.2354 4.73105 16.2354 4.59768V2.58619C16.2354 2.45282 16.2883 2.32491 16.3826 2.2306C16.4769 2.13629 16.6049 2.08331 16.7382 2.08331C16.8716 2.08331 16.9995 2.13629 17.0938 2.2306C17.1881 2.32491 17.2411 2.45282 17.2411 2.58619V4.59768C17.2411 4.73105 17.1881 4.85896 17.0938 4.95327C16.9995 5.04757 16.8716 5.10055 16.7382 5.10055Z">
		</path>
		<path fill="currentColor"
			d="M11.7095 6.44828C11.6212 6.44837 11.5343 6.42517 11.4578 6.38103C11.3813 6.33689 11.3177 6.27336 11.2735 6.19685L10.2678 4.45489C10.2342 4.39768 10.2124 4.3344 10.2034 4.26869C10.1944 4.20298 10.1985 4.13615 10.2154 4.07203C10.2324 4.00792 10.2619 3.94779 10.3021 3.8951C10.3424 3.84242 10.3927 3.79823 10.4502 3.76507C10.5076 3.73191 10.571 3.71044 10.6368 3.70189C10.7026 3.69334 10.7694 3.69788 10.8334 3.71526C10.8974 3.73264 10.9573 3.7625 11.0097 3.80313C11.0621 3.84377 11.106 3.89437 11.1388 3.95202L12.1445 5.69397C12.1886 5.77038 12.2119 5.85705 12.2119 5.94528C12.2119 6.03351 12.1887 6.12019 12.1446 6.19662C12.1006 6.27305 12.0372 6.33654 11.9608 6.38072C11.8844 6.42489 11.7978 6.44819 11.7095 6.44828Z">
		</path>
		<path fill="currentColor"
			d="M8.02809 10.1293C7.93979 10.1295 7.85302 10.1062 7.77665 10.0619L6.03419 9.05614C5.91964 8.98898 5.83629 8.87924 5.80235 8.75086C5.76841 8.62247 5.78662 8.48588 5.85302 8.37088C5.91942 8.25588 6.02861 8.17181 6.15676 8.13701C6.28492 8.10222 6.42163 8.11953 6.53707 8.18516L8.27952 9.19091C8.37539 9.24626 8.45031 9.3317 8.49267 9.43397C8.53502 9.53624 8.54245 9.64963 8.5138 9.75655C8.48515 9.86348 8.42202 9.95796 8.3342 10.0253C8.24638 10.0927 8.13878 10.1293 8.02809 10.1293Z">
		</path>
		<path fill="currentColor"
			d="M6.68087 15.158H4.66938C4.53601 15.158 4.4081 15.105 4.31379 15.0107C4.21949 14.9164 4.1665 14.7885 4.1665 14.6552C4.1665 14.5218 4.21949 14.3939 4.31379 14.2996C4.4081 14.2053 4.53601 14.1523 4.66938 14.1523H6.68087C6.81424 14.1523 6.94215 14.2053 7.03646 14.2996C7.13076 14.3939 7.18375 14.5218 7.18375 14.6552C7.18375 14.7885 7.13076 14.9164 7.03646 15.0107C6.94215 15.105 6.81424 15.158 6.68087 15.158Z">
		</path>
		<path fill="currentColor"
			d="M6.28654 21.1925C6.17585 21.1925 6.06825 21.156 5.98043 21.0886C5.89261 21.0212 5.82948 20.9268 5.80083 20.8198C5.77218 20.7129 5.77961 20.5995 5.82197 20.4972C5.86432 20.395 5.93924 20.3095 6.03511 20.2542L7.77756 19.2484C7.83478 19.2149 7.89806 19.193 7.96376 19.184C8.02947 19.175 8.09631 19.1791 8.16042 19.1961C8.22454 19.213 8.28467 19.2425 8.33735 19.2828C8.39003 19.3231 8.43423 19.3734 8.46739 19.4308C8.50055 19.4882 8.52202 19.5517 8.53057 19.6174C8.53912 19.6832 8.53457 19.75 8.51719 19.814C8.49982 19.878 8.46995 19.9379 8.42932 19.9904C8.38869 20.0428 8.33809 20.0866 8.28044 20.1194L6.53798 21.1252C6.46161 21.1695 6.37484 21.1927 6.28654 21.1925Z">
		</path>
		<path fill="currentColor"
			d="M27.1901 21.1925C27.1018 21.1927 27.015 21.1695 26.9387 21.1252L25.1962 20.1194C25.1386 20.0866 25.088 20.0428 25.0473 19.9904C25.0067 19.9379 24.9768 19.878 24.9595 19.814C24.9421 19.75 24.9375 19.6832 24.9461 19.6174C24.9546 19.5517 24.9761 19.4882 25.0093 19.4308C25.0424 19.3734 25.0866 19.3231 25.1393 19.2828C25.192 19.2425 25.2521 19.213 25.3162 19.1961C25.3803 19.1791 25.4472 19.175 25.5129 19.184C25.5786 19.193 25.6419 19.2149 25.6991 19.2484L27.4416 20.2542C27.5374 20.3095 27.6123 20.395 27.6547 20.4972C27.6971 20.5995 27.7045 20.7129 27.6758 20.8198C27.6472 20.9268 27.584 21.0212 27.4962 21.0886C27.4084 21.156 27.3008 21.1925 27.1901 21.1925Z">
		</path>
		<path fill="currentColor"
			d="M28.8073 15.158H26.7958C26.6625 15.158 26.5346 15.105 26.4403 15.0107C26.3459 14.9164 26.293 14.7885 26.293 14.6552C26.293 14.5218 26.3459 14.3939 26.4403 14.2996C26.5346 14.2053 26.6625 14.1523 26.7958 14.1523H28.8073C28.9407 14.1523 29.0686 14.2053 29.1629 14.2996C29.2572 14.3939 29.3102 14.5218 29.3102 14.6552C29.3102 14.7885 29.2572 14.9164 29.1629 15.0107C29.0686 15.105 28.9407 15.158 28.8073 15.158Z">
		</path>
		<path fill="currentColor"
			d="M24.7844 14.1523H22.27C22.27 13.6188 22.0581 13.1072 21.6809 12.73C21.3037 12.3527 20.792 12.1408 20.2585 12.1408C19.7251 12.1408 19.2134 12.3527 18.8362 12.73C18.459 13.1072 18.247 13.6188 18.247 14.1523H17.2413V12.5512C17.2412 12.4708 17.2219 12.3916 17.1849 12.3202C17.1479 12.2488 17.0943 12.1873 17.0286 12.1409C16.963 12.0945 16.8872 12.0646 16.8075 12.0535C16.7279 12.0425 16.6468 12.0507 16.571 12.0774C16.4189 12.1342 16.2553 12.1532 16.0942 12.133C15.9331 12.1127 15.7793 12.0538 15.646 11.9612C15.5126 11.8686 15.4037 11.7451 15.3284 11.6012C15.2532 11.4573 15.2139 11.2974 15.2139 11.1351C15.2139 10.9727 15.2532 10.8128 15.3284 10.6689C15.4037 10.5251 15.5126 10.4016 15.646 10.309C15.7793 10.2164 15.9331 10.1574 16.0942 10.1372C16.2553 10.1169 16.4189 10.136 16.571 10.1927C16.6468 10.2194 16.7279 10.2277 16.8075 10.2166C16.8872 10.2056 16.963 10.1756 17.0286 10.1292C17.0943 10.0828 17.1479 10.0213 17.1849 9.94994C17.2219 9.87857 17.2412 9.79936 17.2413 9.71897V6.6092C17.2413 6.47583 17.1883 6.34792 17.094 6.25361C16.9997 6.1593 16.8718 6.10632 16.7384 6.10632C14.7852 6.10808 12.8915 6.77862 11.3725 8.00636C9.85339 9.2341 8.80053 10.945 8.3891 12.8544C7.97766 14.7637 8.23246 16.7564 9.11108 18.5008C9.98971 20.2452 11.4392 21.6362 13.2183 22.4422V23.204H12.7154C12.3153 23.204 11.9316 23.363 11.6487 23.6459C11.3658 23.9288 11.2068 24.3125 11.2068 24.7126V25.7184C11.2068 26.1185 11.3658 26.5022 11.6487 26.7851C11.9316 27.0681 12.3153 27.227 12.7154 27.227H13.2183V28.7356C13.2191 29.4022 13.4843 30.0413 13.9556 30.5127C14.427 30.984 15.0661 31.2492 15.7327 31.25H17.7442C18.4108 31.2492 19.0499 30.984 19.5212 30.5127C19.9926 30.0413 20.2577 29.4022 20.2585 28.7356V27.227H20.7614C21.1615 27.227 21.5452 27.0681 21.8282 26.7851C22.1111 26.5022 22.27 26.1185 22.27 25.7184V24.7126C22.27 24.3125 22.1111 23.9288 21.8282 23.6459C21.5452 23.363 21.1615 23.204 20.7614 23.204H20.2585V22.4422C21.7597 21.7691 23.0335 20.6753 23.926 19.2933C24.8185 17.9113 25.2913 16.3003 25.2873 14.6552C25.2873 14.5218 25.2343 14.3939 25.14 14.2996C25.0457 14.2053 24.9178 14.1523 24.7844 14.1523ZM16.2356 7.12867V9.12356C15.7021 9.12356 15.1904 9.33549 14.8132 9.71272C14.436 10.0899 14.2241 10.6016 14.2241 11.1351C14.2241 11.6685 14.436 12.1802 14.8132 12.5574C15.1904 12.9346 15.7021 13.1466 16.2356 13.1466V14.1523H14.6344C14.5539 14.1523 14.4747 14.1717 14.4033 14.2087C14.3318 14.2458 14.2703 14.2994 14.2239 14.3651C14.1775 14.4308 14.1475 14.5067 14.1365 14.5864C14.1255 14.6661 14.1338 14.7473 14.1607 14.8231C14.2174 14.9753 14.2365 15.1388 14.2162 15.2999C14.196 15.461 14.137 15.6148 14.0444 15.7481C13.9518 15.8815 13.8283 15.9904 13.6845 16.0657C13.5406 16.1409 13.3807 16.1802 13.2183 16.1802C13.056 16.1802 12.896 16.1409 12.7522 16.0657C12.6083 15.9904 12.4848 15.8815 12.3922 15.7481C12.2996 15.6148 12.2407 15.461 12.2204 15.2999C12.2002 15.1388 12.2192 14.9753 12.2759 14.8231C12.3028 14.7473 12.3111 14.6661 12.3001 14.5864C12.2891 14.5067 12.2591 14.4308 12.2127 14.3651C12.1663 14.2994 12.1048 14.2458 12.0334 14.2087C11.9619 14.1717 11.8827 14.1523 11.8022 14.1523H9.21192C9.33606 12.3304 10.1159 10.6152 11.4072 9.3239C12.6984 8.03265 14.4137 7.2528 16.2356 7.12867ZM13.9098 21.6451C12.5947 21.1171 11.4559 20.2277 10.6249 19.0798C9.79399 17.9319 9.30481 16.5722 9.21393 15.158H11.2068C11.2068 15.6915 11.4187 16.2032 11.796 16.5804C12.1732 16.9576 12.6848 17.1695 13.2183 17.1695C13.7518 17.1695 14.2634 16.9576 14.6407 16.5804C15.0179 16.2032 15.2298 15.6915 15.2298 15.158H16.2356V16.7592C16.2356 16.8396 16.255 16.9188 16.292 16.9902C16.329 17.0615 16.3826 17.123 16.4482 17.1694C16.5139 17.2158 16.5897 17.2458 16.6693 17.2568C16.749 17.2679 16.8301 17.2597 16.9059 17.2329C17.058 17.1762 17.2216 17.1571 17.3827 17.1774C17.5438 17.1976 17.6975 17.2566 17.8309 17.3492C17.9642 17.4418 18.0732 17.5653 18.1484 17.7092C18.2237 17.853 18.263 18.0129 18.263 18.1753C18.263 18.3376 18.2237 18.4976 18.1484 18.6414C18.0732 18.7853 17.9642 18.9088 17.8309 19.0014C17.6975 19.094 17.5438 19.1529 17.3827 19.1732C17.2216 19.1934 17.058 19.1744 16.9059 19.1177C16.8301 19.0909 16.749 19.0827 16.6693 19.0937C16.5897 19.1048 16.5139 19.1348 16.4482 19.1812C16.3826 19.2276 16.329 19.289 16.292 19.3604C16.255 19.4318 16.2356 19.511 16.2356 19.5914V23.204H14.2241V22.1108C14.224 22.0107 14.194 21.9129 14.138 21.83C14.082 21.747 14.0025 21.6826 13.9098 21.6451ZM19.2528 28.7356C19.2528 29.1357 19.0939 29.5195 18.8109 29.8024C18.528 30.0853 18.1443 30.2443 17.7442 30.2443H15.7327C15.3326 30.2443 14.9488 30.0853 14.6659 29.8024C14.383 29.5195 14.2241 29.1357 14.2241 28.7356V27.227H15.2298V28.7356C15.2298 28.869 15.2828 28.9969 15.3771 29.0912C15.4714 29.1855 15.5993 29.2385 15.7327 29.2385C15.8661 29.2385 15.994 29.1855 16.0883 29.0912C16.1826 28.9969 16.2356 28.869 16.2356 28.7356V27.227H17.2413V28.7356C17.2413 28.869 17.2943 28.9969 17.3886 29.0912C17.4829 29.1855 17.6108 29.2385 17.7442 29.2385C17.8775 29.2385 18.0055 29.1855 18.0998 29.0912C18.1941 28.9969 18.247 28.869 18.247 28.7356V27.227H19.2528V28.7356ZM20.7614 24.2098C20.8948 24.2098 21.0227 24.2628 21.117 24.3571C21.2113 24.4514 21.2643 24.5793 21.2643 24.7126V25.7184C21.2643 25.8518 21.2113 25.9797 21.117 26.074C21.0227 26.1683 20.8948 26.2213 20.7614 26.2213H12.7154C12.5821 26.2213 12.4542 26.1683 12.3599 26.074C12.2655 25.9797 12.2126 25.8518 12.2126 25.7184V24.7126C12.2126 24.5793 12.2655 24.4514 12.3599 24.3571C12.4542 24.2628 12.5821 24.2098 12.7154 24.2098H20.7614ZM19.5671 21.6451C19.4742 21.6827 19.3947 21.7471 19.3387 21.8302C19.2827 21.9132 19.2528 22.0111 19.2528 22.1113V23.204H17.2413V20.1868C17.7748 20.1868 18.2864 19.9749 18.6636 19.5976C19.0409 19.2204 19.2528 18.7088 19.2528 18.1753C19.2528 17.6418 19.0409 17.1302 18.6636 16.7529C18.2864 16.3757 17.7748 16.1638 17.2413 16.1638V15.158H18.8425C18.9229 15.158 19.0022 15.1387 19.0736 15.1016C19.145 15.0646 19.2065 15.011 19.2529 14.9452C19.2994 14.8795 19.3293 14.8036 19.3403 14.7239C19.3513 14.6442 19.343 14.5631 19.3162 14.4872C19.2594 14.3351 19.2404 14.1715 19.2606 14.0104C19.2809 13.8493 19.3398 13.6956 19.4324 13.5622C19.525 13.4289 19.6485 13.3199 19.7924 13.2447C19.9363 13.1694 20.0962 13.1301 20.2585 13.1301C20.4209 13.1301 20.5808 13.1694 20.7247 13.2447C20.8685 13.3199 20.992 13.4289 21.0846 13.5622C21.1772 13.6956 21.2362 13.8493 21.2564 14.0104C21.2767 14.1715 21.2576 14.3351 21.2009 14.4872C21.1741 14.5631 21.1658 14.6442 21.1768 14.7239C21.1878 14.8036 21.2177 14.8795 21.2641 14.9452C21.3106 15.011 21.3721 15.0646 21.4435 15.1016C21.5149 15.1387 21.5942 15.158 21.6746 15.158H24.2649C24.1737 16.5724 23.6841 17.9321 22.8528 19.08C22.0215 20.2279 20.8824 21.1172 19.5671 21.6451Z">
		</path>
		<path fill="currentColor"
			d="M20.7614 2.08331C20.6281 2.08331 20.5002 2.13629 20.4059 2.2306C20.3115 2.32491 20.2586 2.45282 20.2586 2.58619V5.10055C19.7251 5.10055 19.2135 5.31248 18.8362 5.68971C18.459 6.06694 18.2471 6.57857 18.2471 7.11205C18.2471 7.64553 18.459 8.15716 18.8362 8.53439C19.2135 8.91162 19.7251 9.12354 20.2586 9.12354V10.6322C20.2586 10.7655 20.3115 10.8934 20.4059 10.9877C20.5002 11.0821 20.6281 11.135 20.7614 11.135H22.8655C22.9459 11.135 23.0252 11.1156 23.0966 11.0786C23.168 11.0416 23.2295 10.988 23.276 10.9222C23.3224 10.8565 23.3523 10.7806 23.3633 10.7009C23.3743 10.6212 23.366 10.54 23.3392 10.4642C23.2825 10.3121 23.2634 10.1485 23.2837 9.98742C23.3039 9.82634 23.3629 9.67256 23.4555 9.53921C23.5481 9.40586 23.6716 9.29691 23.8154 9.22166C23.9593 9.14642 24.1192 9.10712 24.2816 9.10712C24.4439 9.10712 24.6038 9.14642 24.7477 9.22166C24.8915 9.29691 25.0151 9.40586 25.1077 9.53921C25.2003 9.67256 25.2592 9.82634 25.2794 9.98742C25.2997 10.1485 25.2807 10.3121 25.2239 10.4642C25.1971 10.54 25.1888 10.6212 25.1998 10.7009C25.2108 10.7806 25.2407 10.8565 25.2872 10.9222C25.3336 10.988 25.3951 11.0416 25.4665 11.0786C25.5379 11.1156 25.6172 11.135 25.6976 11.135H28.8074C28.9408 11.135 29.0687 11.0821 29.163 10.9877C29.2573 10.8934 29.3103 10.7655 29.3103 10.6322C29.3078 8.36564 28.4063 6.19268 26.8036 4.59001C25.2009 2.98733 23.028 2.08584 20.7614 2.08331ZM26.293 10.1293C26.293 9.59581 26.0811 9.08418 25.7039 8.70695C25.3267 8.32972 24.815 8.1178 24.2816 8.1178C23.7481 8.1178 23.2364 8.32972 22.8592 8.70695C22.482 9.08418 22.2701 9.59581 22.2701 10.1293H21.2643V8.52814C21.2642 8.44774 21.2449 8.36854 21.2079 8.29716C21.1709 8.22579 21.1173 8.16433 21.0517 8.11793C20.986 8.07153 20.9102 8.04155 20.8305 8.0305C20.7509 8.01946 20.6698 8.02766 20.594 8.05443C20.4419 8.11115 20.2783 8.13019 20.1172 8.10994C19.9561 8.08969 19.8023 8.03075 19.669 7.93815C19.5356 7.84555 19.4267 7.72204 19.3514 7.57819C19.2762 7.43433 19.2369 7.2744 19.2369 7.11205C19.2369 6.9497 19.2762 6.78977 19.3514 6.64591C19.4267 6.50205 19.5356 6.37855 19.669 6.28595C19.8023 6.19335 19.9561 6.13441 20.1172 6.11416C20.2783 6.09391 20.4419 6.11295 20.594 6.16966C20.6698 6.19644 20.7509 6.20464 20.8305 6.19359C20.9102 6.18255 20.986 6.15257 21.0517 6.10617C21.1173 6.05977 21.1709 5.99831 21.2079 5.92693C21.2449 5.85556 21.2642 5.77635 21.2643 5.69596V3.10565C23.0862 3.22979 24.8015 4.00964 26.0927 5.30089C27.384 6.59214 28.1638 8.3074 28.2879 10.1293H26.293Z">
		</path>
	</symbol>
	<symbol id="nav-collaboration-journey-02">
		<path fill="currentColor"
			d="M27.8879 6.20964H27.5418C28.2015 5.13567 27.9579 3.69383 26.8992 2.90834C25.7584 2.06206 24.1374 2.33447 23.3413 3.52413L21.5443 6.2097H6.10689C4.83799 6.2097 3.80566 7.24202 3.80566 8.51092V23.2235C3.80566 24.4924 4.83799 25.5248 6.10689 25.5248H15.0455L14.3701 28.3615H12.9125C11.9625 28.3615 11.1895 29.1343 11.1895 30.0843V30.4441H9.39258C9.07796 30.4441 8.82293 30.6991 8.82293 31.0137C8.82293 31.3283 9.07796 31.5834 9.39258 31.5834H24.6022C24.9168 31.5834 25.1719 31.3283 25.1719 31.0137C25.1719 30.6991 24.9168 30.4441 24.6022 30.4441H22.8053V30.0843C22.8053 29.1343 22.0324 28.3615 21.0823 28.3615H19.6247L18.9493 25.5248H27.8879C29.1568 25.5248 30.1891 24.4924 30.1891 23.2235V19.9862V8.51086C30.1891 7.24196 29.1568 6.20964 27.8879 6.20964ZM19.7258 16.2241C18.8351 16.8475 17.1666 16.0001 15.5731 16.8503C15.1843 14.8306 15.4295 12.9311 17.4532 12.5119C17.7147 12.4574 17.9963 12.4327 18.236 12.4375C18.9209 12.9457 19.6137 13.4597 20.2967 13.9665C20.5958 14.8362 20.4835 15.6937 19.7258 16.2241ZM20.2999 10.1181L21.9124 11.3145L20.6723 12.8264C20.1618 12.4476 19.7229 12.122 19.2124 11.7432C19.3184 11.5848 20.203 10.2628 20.2999 10.1181ZM24.2882 4.15775C24.7197 3.51285 25.5996 3.3628 26.2203 3.82337C26.8412 4.28399 26.9524 5.16957 26.4604 5.76947C25.5874 6.83375 23.512 9.3642 22.6357 10.4326L20.9341 9.17012L24.2882 4.15775ZM21.6659 30.0843V30.4441H12.3289V30.0843C12.3289 29.7626 12.5907 29.5008 12.9125 29.5008H21.0823C21.4041 29.5008 21.6659 29.7626 21.6659 30.0843ZM18.4535 28.3615H15.5413L16.2167 25.5248H17.7781L18.4535 28.3615ZM29.0498 23.2235C29.0498 23.8642 28.5286 24.3855 27.8879 24.3855C26.9837 24.3855 7.12366 24.3855 6.10694 24.3855C5.46626 24.3855 4.94502 23.8642 4.94502 23.2235V20.5559H6.57286C6.88748 20.5559 7.14251 20.3008 7.14251 19.9862C7.14251 19.6716 6.88748 19.4166 6.57286 19.4166H4.94491V8.51086C4.94491 7.87017 5.46614 7.34894 6.10683 7.34894H20.7819C20.2362 8.16451 18.6441 10.5438 18.1398 11.2974C17.0234 11.3075 15.9089 11.6964 15.1793 12.5482C14.1864 13.7071 14.012 15.5282 14.6608 17.9607C14.7717 18.3767 15.2908 18.5257 15.6048 18.2257C17.0778 16.8183 18.9123 18.3535 20.5551 17.0238C21.5579 16.212 21.7952 14.9216 21.4171 13.7148C21.9282 13.0916 26.126 7.97362 26.6384 7.34894H27.8878C28.5285 7.34894 29.0497 7.87017 29.0497 8.51086V19.4165H11.13C10.8153 19.4165 10.5603 19.6716 10.5603 19.9862C10.5603 20.3007 10.8153 20.5558 11.13 20.5558H29.0498V23.2235Z">
		</path>
		<path fill="currentColor"
			d="M8.7417 19.4275C8.46746 19.4835 8.28369 19.7206 8.28369 19.9864C8.28369 20.3427 8.60948 20.6156 8.96444 20.5446C9.27986 20.4806 9.47201 20.1766 9.41162 19.8747C9.34822 19.5631 9.04596 19.3662 8.7417 19.4275Z">
		</path>
	</symbol>
	<symbol id="nav-collaboration-journey-03">
		<path fill="currentColor"
			d="M16 8L17.912 11.703L22 12.297L19 15L20 19L16 16.75L12 19L13 15L10 12.297L14.2 11.703L16 8Z">
		</path>
		<path stroke-width="0.3" stroke="#currentColor" fill="currentColor"
			d="M14.85 22.15H6.00023H6V22C5.73725 22.0004 5.477 21.9489 5.23417 21.8486C4.99134 21.7482 4.7707 21.6009 4.58491 21.4151C4.39911 21.2293 4.25181 21.0087 4.15144 20.7658C4.05107 20.523 3.99961 20.2628 4 20L14.85 22.15ZM14.85 22.15V23.85H6C4.97892 23.85 3.99965 23.4444 3.27764 22.7224C2.55562 22.0003 2.15 21.0211 2.15 20L2.15 8L2.15 7.99996C2.14987 7.49434 2.24937 6.99365 2.4428 6.5265C2.63624 6.05934 2.91982 5.63487 3.27735 5.27735C3.63487 4.91982 4.05934 4.63624 4.5265 4.4428C4.99365 4.24937 5.49434 4.14987 5.99996 4.15H6L26 4.15L26 4.15C26.5057 4.14987 27.0063 4.24937 27.4735 4.4428C27.9407 4.63624 28.3651 4.91982 28.7227 5.27735C29.0802 5.63487 29.3638 6.05934 29.5572 6.5265C29.7506 6.99365 29.8501 7.49434 29.85 7.99996V8V20C29.85 21.0211 29.4444 22.0003 28.7224 22.7224C28.0003 23.4444 27.0211 23.85 26 23.85H21.165H21.078L21.0348 23.9256L17.6804 29.7949L16.2044 28.9446L20.087 22.15H25.9998H26V22M14.85 22.15L6.00023 5.85H25.9998C25.9998 5.85 25.9998 5.85 25.9999 5.85H26V6C26.2628 5.99961 26.523 6.05107 26.7658 6.15144C27.0087 6.25181 27.2293 6.39911 27.4151 6.58491C27.6009 6.7707 27.7482 6.99134 27.8486 7.23417C27.9489 7.477 28.0004 7.73725 28 8M26 22C26.2628 22.0004 26.523 21.9489 26.7658 21.8486C27.0087 21.7482 27.2293 21.6009 27.4151 21.4151C27.6009 21.2293 27.7482 21.0087 27.8486 20.7658C27.9489 20.523 28.0004 20.2628 28 20M26 22H20H26ZM28 20H28.15V19.9998V8.00023V8H28M28 20V8M28 20V8">
		</path>
	</symbol>
	<symbol id="nav-collaboration-journey-04">
		<path stroke-linejoin="round" stroke-linecap="round" stroke-width="1.5" stroke="currentColor"
			d="M8.80769 16.5006V11.4432C8.82271 10.449 9.03375 9.46765 9.42873 8.55523C9.8237 7.64281 10.3948 6.81728 11.1094 6.12596C11.824 5.43464 12.668 4.8911 13.593 4.5265C14.518 4.1619 15.5059 3.98339 16.5 4.00121C17.4941 3.98339 18.482 4.1619 19.407 4.5265C20.332 4.8911 21.176 5.43464 21.8906 6.12596C22.6052 6.81728 23.1763 7.64281 23.5713 8.55523C23.9662 9.46765 24.1773 10.449 24.1923 11.4432V16.5006M20.3462 26.5963C21.3662 26.5963 22.3445 26.1911 23.0658 25.4698C23.7871 24.7486 24.1923 23.7703 24.1923 22.7503V18.4236M20.3462 26.5963C20.3462 27.2338 20.0929 27.8452 19.6421 28.296C19.1913 28.7468 18.5798 29 17.9423 29H15.0577C14.4202 29 13.8087 28.7468 13.3579 28.296C12.9071 27.8452 12.6538 27.2338 12.6538 26.5963C12.6538 25.9588 12.9071 25.3474 13.3579 24.8966C13.8087 24.4458 14.4202 24.1925 15.0577 24.1925H17.9423C18.5798 24.1925 19.1913 24.4458 19.6421 24.8966C20.0929 25.3474 20.3462 25.9588 20.3462 26.5963ZM5.92308 13.6161H7.84615C8.10117 13.6161 8.34574 13.7174 8.52606 13.8977C8.70639 14.0781 8.80769 14.3226 8.80769 14.5776V20.3466C8.80769 20.6016 8.70639 20.8461 8.52606 21.0265C8.34574 21.2068 8.10117 21.3081 7.84615 21.3081H5.92308C5.41305 21.3081 4.9239 21.1055 4.56326 20.7448C4.20261 20.3842 4 19.8951 4 19.3851V15.5391C4 15.0291 4.20261 14.54 4.56326 14.1794C4.9239 13.8187 5.41305 13.6161 5.92308 13.6161ZM27.0769 21.3081H25.1538C24.8988 21.3081 24.6543 21.2068 24.4739 21.0265C24.2936 20.8461 24.1923 20.6016 24.1923 20.3466V14.5776C24.1923 14.3226 24.2936 14.0781 24.4739 13.8977C24.6543 13.7174 24.8988 13.6161 25.1538 13.6161H27.0769C27.587 13.6161 28.0761 13.8187 28.4367 14.1794C28.7974 14.54 29 15.0291 29 15.5391V19.3851C29 19.8951 28.7974 20.3842 28.4367 20.7448C28.0761 21.1055 27.587 21.3081 27.0769 21.3081Z">
		</path>
	</symbol>
	<symbol id="social-icon_01">

		<path fill="currentColor"
			d="M19.7,3H4.3C3.582,3,3,3.582,3,4.3v15.4C3,20.418,3.582,21,4.3,21h15.4c0.718,0,1.3-0.582,1.3-1.3V4.3 C21,3.582,20.418,3,19.7,3z M8.339,18.338H5.667v-8.59h2.672V18.338z M7.004,8.574c-0.857,0-1.549-0.694-1.549-1.548 c0-0.855,0.691-1.548,1.549-1.548c0.854,0,1.547,0.694,1.547,1.548C8.551,7.881,7.858,8.574,7.004,8.574z M18.339,18.338h-2.669 v-4.177c0-0.996-0.017-2.278-1.387-2.278c-1.389,0-1.601,1.086-1.601,2.206v4.249h-2.667v-8.59h2.559v1.174h0.037 c0.356-0.675,1.227-1.387,2.526-1.387c2.703,0,3.203,1.779,3.203,4.092V18.338z">
		</path>
	</symbol>
	<symbol id="mail-icon">

		<path fill="currentColor"
			d="M15.5281 2.75C16.7573 2.75 17.9398 3.23583 18.8097 4.10758C19.6806 4.9775 20.1673 6.15083 20.1673 7.37917V14.6208C20.1673 17.1783 18.0865 19.25 15.5281 19.25H6.47232C3.9139 19.25 1.83398 17.1783 1.83398 14.6208V7.37917C1.83398 4.82167 3.90473 2.75 6.47232 2.75H15.5281ZM16.9869 8.74498L17.0602 8.67164C17.2793 8.40581 17.2793 8.02081 17.0502 7.75498C16.9227 7.61839 16.7477 7.53498 16.5652 7.51664C16.3727 7.50656 16.1894 7.57164 16.051 7.69998L11.9177 11C11.3861 11.4409 10.6243 11.4409 10.0844 11L5.95941 7.69998C5.67432 7.48914 5.28016 7.51664 5.04274 7.76414C4.79524 8.01164 4.76774 8.40581 4.97766 8.68081L5.09774 8.79998L9.26857 12.0541C9.78191 12.4575 10.4043 12.6775 11.0561 12.6775C11.706 12.6775 12.3394 12.4575 12.8518 12.0541L16.9869 8.74498Z"
			clip-rule="evenodd" fill-rule="evenodd">
		</path>
	</symbol>
	<symbol id="arrow-top">

		<svg >
			<path fill="currentColor"
				d="M305.863 314.916c0 2.266-1.133 4.815-2.832 6.514l-14.157 14.163c-1.699 1.7-3.964 2.832-6.513 2.832-2.265 0-4.813-1.133-6.512-2.832L164.572 224.276 53.295 335.593c-1.699 1.7-4.247 2.832-6.512 2.832-2.265 0-4.814-1.133-6.513-2.832L26.113 321.43c-1.699-1.7-2.831-4.248-2.831-6.514s1.132-4.816 2.831-6.515L158.06 176.408c1.699-1.7 4.247-2.833 6.512-2.833 2.265 0 4.814 1.133 6.513 2.833L303.03 308.4c1.7 1.7 2.832 4.249 2.832 6.515z"
				fill-rule="nonzero"></path>
		</svg>
	</symbol>
</svg>