<?xml version="1.0" encoding="UTF-8"?>
<!-- Generator: Adobe Illustrator 23.0.3, SVG Export Plug-In . SVG Version: 6.00 Build 0)  -->
<svg xmlns="http://www.w3.org/2000/svg" xmlns:xlink="http://www.w3.org/1999/xlink" version="1.1" id="Layer_1" x="0px" y="0px" viewBox="0 0 331.4 105" style="enable-background:new 0 0 331.4 105;" xml:space="preserve">
<style type="text/css">
	.st0{fill:#FFFFFF;}
	.st1{fill:#0C0C0C;}
	.st2{fill:#3AAFA9;}
</style>
<title>NewPrimaryLogoColor</title>
<g>
	<rect x="14.6" y="31.8" class="st0" width="75.7" height="40.4"></rect>
	<g>
		<g id="Layer_1-2">
			<g id="Logo_Horiz_Color">
				<g id="unito_logo">
					<path id="Fill-1" class="st1" d="M135.9,59.8c0,3.2,0,7.2,2.3,10.3c2.1,2.4,5.2,3.7,8.4,3.6c3.2,0.1,6.3-1.2,8.4-3.6       c2.3-3,2.3-6.9,2.3-10.3V32h8.2v28.8c0,5.9-0.6,10.3-4.4,14.3c-4.2,4.6-9.9,5.9-14.6,5.9c-5.5,0.1-10.7-2-14.6-5.9       c-3.8-4.2-4.4-8.6-4.4-14.3V32h8.5v27.8"></path>
					<path id="Fill-2" class="st1" d="M233,78h7.6V30.7H233V78z M236.9,7c3.1,0.2,5.6,2.8,5.5,5.9c0.1,3.1-2.4,5.7-5.5,5.9       c-3.1-0.1-5.6-2.7-5.5-5.9c0,0,0,0,0,0C231.3,9.8,233.7,7.1,236.9,7C236.9,7,236.9,7,236.9,7z"></path>
					<polyline id="Fill-3" class="st1" points="267.4,37.9 267.4,78 259.4,78 259.4,37.9 254.4,37.9 254.4,30.2 259.4,30.2        259.4,13 267.4,13 267.4,30.2 275.4,30.2 275.4,37.9 267.4,37.9      "></polyline>
					<path id="Fill-5" class="st1" d="M178.4,79V50.2c0-5.9,0.6-10.3,4.4-14.3c4.2-4.6,9.9-5.9,14.6-5.9c5.5-0.1,10.7,2,14.6,5.9       c3.8,4.2,4.4,8.6,4.4,14.3V79h-8.2V51.2c0-3.2,0-7.2-2.3-10.3c-2.1-2.4-5.2-3.7-8.4-3.6c-3.2-0.1-6.3,1.2-8.4,3.6       c-2.3,3.1-2.3,6.9-2.3,10.3V79H178.4z"></path>
					<path id="Fill-4" class="st1" d="M289.8,55.1c0,11.8,8.1,17.7,16.5,17.7s16.5-6.1,16.5-17.7c0-11.8-7.9-17.7-16.5-17.7       S289.8,43.5,289.8,55.1z M281.4,55.1c0-14.4,10.5-25.1,25-25.1s25,10.6,25,25.1S320.7,80,306.4,80       C292.1,80.2,281.4,69.6,281.4,55.1z"></path>
					<g id="Group-8">
						<path id="Fill-7" class="st2" d="M83.9,50.6l-0.1,12c0,1.2-1,2.2-2.2,2.3l0,0c-1.2-0.1-2.2-1.1-2.2-2.3l0.1-12l0,0        c0-6.8-5.6-12.4-12.4-12.4h0l0,0c-6.2,0-11.7,5.4-12.2,12.1v0.5l-0.2,4.6v0.3C54.6,65,47,72.4,37.8,72.3        c-9.3-0.1-16.7-7.7-16.7-16.9c0,0,0.1,0,0.1-0.1c0,0,0,0,0,0h-0.1V43.8c0-1.2,1-2.1,2.2-2.1c0,0,0,0,0,0l0,0        c1.2,0,2.2,0.9,2.2,2.1c0,0,0,0,0,0l0,0l-0.1,11.5c0,6.8,5.6,12.4,12.4,12.4s12.4-5.6,12.4-12.4l0,0v-0.4l0.2-4.2v-0.5        C51,41.1,58.3,33.9,67,33.9c9.3,0,16.8,7.6,16.8,16.9C83.9,50.5,83.9,50.5,83.9,50.6z M52.7,0C23.7-0.1,0.1,23.3,0,52.3        s23.3,52.6,52.3,52.7c29,0.1,52.6-23.3,52.7-52.3v-0.2C105.1,23.6,81.7,0.1,52.7,0L52.7,0z"></path>
					</g>
				</g>
			</g>
		</g>
	</g>
</g>
</svg>
